<svg xmlns="http://www.w3.org/2000/svg" version="1.1" xmlns:xlink="http://www.w3.org/1999/xlink" xmlns:svgjs="http://svgjs.dev/svgjs" width="1000" height="1000" viewBox="0 0 1000 1000"><rect width="1000" height="1000" fill="#89939e"></rect><g transform="matrix(0.7,0,0,0.7,149.57575757575756,462.8172840935414)"><svg viewBox="0 0 396 42" data-background-color="#89939e" preserveAspectRatio="xMidYMid meet" height="106" width="1000" xmlns="http://www.w3.org/2000/svg" xmlns:xlink="http://www.w3.org/1999/xlink"><g id="tight-bounds" transform="matrix(1,0,0,1,0.2400000000000091,0.04682032441053252)"><svg viewBox="0 0 395.52 41.90635665311862" height="41.90635665311862" width="395.52"><g><svg viewBox="0 0 471.0047486254084 49.90415903420522" height="41.90635665311862" width="395.52"><g transform="matrix(1,0,0,1,0,6.897029215291749)"><svg viewBox="0 0 395.52 36.110100603621724" height="36.110100603621724" width="395.52"><g id="textblocktransform"><svg viewBox="0 0 395.52 36.110100603621724" height="36.110100603621724" width="395.52" id="textblock"><g><svg viewBox="0 0 395.52 36.110100603621724" height="36.110100603621724" width="395.52"><g transform="matrix(1,0,0,1,0,0)"><svg width="395.52" viewBox="0 -35.650001525878906 397.57000732421875 36.30000305175781" height="36.110100603621724" data-palette-color="#000000"><path d="M18.4 0.65L18.4 0.65Q15.8 0.65 13.75-0.58 11.7-1.8 10.8-4.2L10.8-4.2 0-35 10.1-35 17.9-8.95Q18-8.75 18.13-8.6 18.25-8.45 18.4-8.45L18.4-8.45Q18.6-8.45 18.75-8.6 18.9-8.75 18.95-8.95L18.95-8.95 26.75-35 36.8-35 26.05-4.25Q25.15-1.8 23.08-0.58 21 0.65 18.4 0.65ZM64.35 0L49.15 0Q46.2 0 43.75-1.33 41.3-2.65 39.87-4.98 38.45-7.3 38.45-10.25L38.45-10.25Q38.45-12.5 39.45-14.5 40.45-16.5 42.25-17.9L42.25-17.9Q40.65-19.25 39.67-21.13 38.7-23 38.7-25L38.7-25Q38.7-27.9 40.1-30.15 41.5-32.4 43.9-33.7 46.3-35 49.15-35L49.15-35 64.35-35 64.35-27.25 51.05-27.25Q50.15-27.25 49.42-26.9 48.7-26.55 48.27-25.9 47.85-25.25 47.85-24.35L47.85-24.35Q47.85-23.5 48.27-22.88 48.7-22.25 49.42-21.88 50.15-21.5 51.05-21.5L51.05-21.5 62.6-21.5 62.6-13.8 51.15-13.8Q50.2-13.8 49.45-13.43 48.7-13.05 48.27-12.35 47.85-11.65 47.85-10.75L47.85-10.75Q47.85-9.85 48.27-9.18 48.7-8.5 49.45-8.13 50.2-7.75 51.15-7.75L51.15-7.75 64.35-7.75 64.35 0ZM85.6 0L69.2 0 69.2-7.75 84.1-7.75Q85.05-7.75 85.72-8.15 86.4-8.55 86.8-9.25 87.2-9.95 87.2-10.75L87.2-10.75Q87.2-11.6 86.8-12.3 86.4-13 85.72-13.4 85.05-13.8 84.1-13.8L84.1-13.8 79.15-13.8Q76-13.8 73.45-15.05 70.9-16.3 69.37-18.63 67.85-20.95 67.85-24.25L67.85-24.25Q67.85-27.5 69.3-29.9 70.75-32.3 73.2-33.65 75.65-35 78.65-35L78.65-35 94.35-35 94.35-27.25 79.85-27.25Q79.05-27.25 78.42-26.88 77.8-26.5 77.45-25.9 77.1-25.3 77.1-24.55L77.1-24.55Q77.1-23.8 77.45-23.18 77.8-22.55 78.42-22.18 79.05-21.8 79.85-21.8L79.85-21.8 85.1-21.8Q88.6-21.8 91.15-20.5 93.7-19.2 95.1-16.88 96.5-14.55 96.5-11.4L96.5-11.4Q96.5-7.8 95.02-5.23 93.55-2.65 91.07-1.33 88.6 0 85.6 0L85.6 0ZM110.24 0L100.69 0 100.69-35 116.04-35Q119.74-35 122.74-33.4 125.74-31.8 127.52-28.95 129.29-26.1 129.29-22.3L129.29-22.3Q129.29-18.6 127.52-15.7 125.74-12.8 122.74-11.18 119.74-9.55 116.04-9.55L116.04-9.55 110.24-9.55 110.24 0ZM110.24-27.25L110.24-17.25 114.99-17.25Q116.29-17.25 117.34-17.85 118.39-18.45 119.02-19.58 119.64-20.7 119.64-22.25L119.64-22.25Q119.64-23.85 119.02-24.98 118.39-26.1 117.34-26.68 116.29-27.25 114.99-27.25L114.99-27.25 110.24-27.25ZM158.09 0L142.89 0Q139.94 0 137.49-1.33 135.04-2.65 133.62-4.98 132.19-7.3 132.19-10.25L132.19-10.25Q132.19-12.5 133.19-14.5 134.19-16.5 135.99-17.9L135.99-17.9Q134.39-19.25 133.42-21.13 132.44-23 132.44-25L132.44-25Q132.44-27.9 133.84-30.15 135.24-32.4 137.64-33.7 140.04-35 142.89-35L142.89-35 158.09-35 158.09-27.25 144.79-27.25Q143.89-27.25 143.17-26.9 142.44-26.55 142.02-25.9 141.59-25.25 141.59-24.35L141.59-24.35Q141.59-23.5 142.02-22.88 142.44-22.25 143.17-21.88 143.89-21.5 144.79-21.5L144.79-21.5 156.34-21.5 156.34-13.8 144.89-13.8Q143.94-13.8 143.19-13.43 142.44-13.05 142.02-12.35 141.59-11.65 141.59-10.75L141.59-10.75Q141.59-9.85 142.02-9.18 142.44-8.5 143.19-8.13 143.94-7.75 144.89-7.75L144.89-7.75 158.09-7.75 158.09 0ZM172.14 0L162.59 0 162.59-35 178.84-35Q182.54-35 185.54-33.43 188.54-31.85 190.34-29.08 192.14-26.3 192.14-22.6L192.14-22.6Q192.14-19.4 190.61-16.73 189.09-14.05 186.54-12.4L186.54-12.4 188.89-8.5Q189.19-8.05 189.56-7.83 189.94-7.6 190.59-7.6L190.59-7.6 193.39-7.6 193.39 0 188.19 0Q185.69 0 183.74-1.13 181.79-2.25 180.74-4.05L180.74-4.05 177.19-10.15Q176.89-10.15 176.59-10.15 176.29-10.15 176.04-10.15L176.04-10.15 172.14-10.15 172.14 0ZM172.14-27.25L172.14-17.75 177.84-17.75Q179.09-17.75 180.14-18.32 181.19-18.9 181.84-20 182.49-21.1 182.49-22.55L182.49-22.55Q182.49-24 181.84-25.05 181.19-26.1 180.14-26.68 179.09-27.25 177.84-27.25L177.84-27.25 172.14-27.25ZM217.14 0L196.09 0 196.09-7.75 201.79-7.75 201.79-27.25 196.09-27.25 196.09-35 217.14-35 217.14-27.25 211.39-27.25 211.39-7.75 217.14-7.75 217.14 0ZM228.98 0L219.03 0 230.28-30.75Q231.23-33.2 233.28-34.43 235.33-35.65 237.93-35.65L237.93-35.65Q240.53-35.65 242.61-34.45 244.68-33.25 245.58-30.8L245.58-30.8 256.83 0 246.58 0 244.53-6.4 231.13-6.4 228.98 0ZM237.43-26.65L233.38-14 242.33-14 238.48-26.65Q238.43-26.85 238.28-26.95 238.13-27.05 237.93-27.05L237.93-27.05Q237.78-27.05 237.66-26.95 237.53-26.85 237.43-26.65L237.43-26.65ZM287.98 0L271.58 0 271.58-7.75 286.48-7.75Q287.43-7.75 288.1-8.15 288.78-8.55 289.18-9.25 289.58-9.95 289.58-10.75L289.58-10.75Q289.58-11.6 289.18-12.3 288.78-13 288.1-13.4 287.43-13.8 286.48-13.8L286.48-13.8 281.53-13.8Q278.38-13.8 275.83-15.05 273.28-16.3 271.75-18.63 270.23-20.95 270.23-24.25L270.23-24.25Q270.23-27.5 271.68-29.9 273.13-32.3 275.58-33.65 278.03-35 281.03-35L281.03-35 296.73-35 296.73-27.25 282.23-27.25Q281.43-27.25 280.8-26.88 280.18-26.5 279.83-25.9 279.48-25.3 279.48-24.55L279.48-24.55Q279.48-23.8 279.83-23.18 280.18-22.55 280.8-22.18 281.43-21.8 282.23-21.8L282.23-21.8 287.48-21.8Q290.98-21.8 293.53-20.5 296.08-19.2 297.48-16.88 298.88-14.55 298.88-11.4L298.88-11.4Q298.88-7.8 297.4-5.23 295.93-2.65 293.45-1.33 290.98 0 287.98 0L287.98 0ZM320.53 0.65L320.53 0.65Q316.38 0.65 312.93-0.73 309.48-2.1 307-4.58 304.53-7.05 303.15-10.35 301.78-13.65 301.78-17.5L301.78-17.5Q301.78-21.35 303.15-24.68 304.53-28 307-30.45 309.48-32.9 312.93-34.27 316.38-35.65 320.53-35.65L320.53-35.65Q324.73-35.65 328.15-34.27 331.58-32.9 334.08-30.45 336.58-28 337.93-24.68 339.28-21.35 339.28-17.5L339.28-17.5Q339.28-13.65 337.93-10.35 336.58-7.05 334.08-4.58 331.58-2.1 328.15-0.73 324.73 0.65 320.53 0.65ZM320.53-7.25L320.53-7.25Q322.58-7.25 324.25-8.03 325.93-8.8 327.15-10.23 328.38-11.65 329-13.5 329.63-15.35 329.63-17.5L329.63-17.5Q329.63-19.65 329-21.53 328.38-23.4 327.15-24.8 325.93-26.2 324.25-26.98 322.58-27.75 320.53-27.75L320.53-27.75Q318.53-27.75 316.83-26.98 315.13-26.2 313.93-24.8 312.73-23.4 312.08-21.53 311.43-19.65 311.43-17.5L311.43-17.5Q311.43-15.35 312.08-13.5 312.73-11.65 313.93-10.23 315.13-8.8 316.83-8.03 318.53-7.25 320.53-7.25ZM352.57 0L343.02 0 343.02-24.45Q343.02-27.45 344.47-29.83 345.92-32.2 348.45-33.6 350.97-35 354.12-35L354.12-35 367.57-35 367.57-27.25 355.52-27.25Q354.27-27.25 353.42-26.4 352.57-25.55 352.57-24.35L352.57-24.35 352.57-19.9 365.97-19.9 365.97-12.3 352.57-12.3 352.57 0ZM393.87 0L390.02 0Q386.77 0 384.25-1.43 381.72-2.85 380.3-5.3 378.87-7.75 378.87-10.8L378.87-10.8 378.87-27.25 369.57-27.25 369.57-35 397.57-35 397.57-27.25 388.42-27.25 388.42-10.15Q388.42-9.15 389.12-8.45 389.82-7.75 390.77-7.75L390.77-7.75 393.87-7.75 393.87 0Z" opacity="1" transform="matrix(1,0,0,1,0,0)" fill="#000000" class="wordmark-text-0" data-fill-palette-color="primary" id="text-0"></path></svg></g></svg></g></svg></g></svg></g><g transform="matrix(1,0,0,1,404.0447281101006,0)"><svg viewBox="0 0 66.96002051530783 49.90415903420522" height="49.90415903420522" width="66.96002051530783"><g><svg xmlns="http://www.w3.org/2000/svg" xmlns:xlink="http://www.w3.org/1999/xlink" version="1.1" x="0" y="0" viewBox="18.19999885559082 26.299999237060547 63.600006103515625 47.39999771118164" enable-background="new 0 0 100 100" xml:space="preserve" height="49.90415903420522" width="66.96002051530783" class="icon-icon-0" data-fill-palette-color="accent" id="icon-0"><g fill="#000000" data-fill-palette-color="accent"><path d="M23.9 32.2h39.9v2.2c0.3 0 0.5-0.1 0.8-0.1h4.9V30c0-2.1-1.7-3.7-3.7-3.7H21.9c-2.1 0-3.7 1.7-3.7 3.7v27.5c0 0 0 0 0 0v5c0 0 0 0 0 0.1v0.3c0 0 0 0 0 0.1V63h0c0.1 1.8 1.5 3.2 3.3 3.2h16.6c0 0.7-0.4 4.1-5.4 4.7h0.2c-0.8 0-1.4 0.6-1.4 1.4 0 0.8 0.6 1.4 1.4 1.4h21.9c0.8 0 1.4-0.6 1.4-1.4 0-0.8-0.6-1.4-1.4-1.4h0.2c-5-0.6-5.4-4-5.4-4.7h8.2v-8H23.9V32.2zM43.8 60.7c1 0 1.8 0.8 1.8 1.8 0 1-0.8 1.8-1.8 1.8-1 0-1.8-0.8-1.8-1.8C42 61.5 42.8 60.7 43.8 60.7zM77.9 73.7c2.2 0 3.9-1.8 3.9-3.9v-0.6-0.1-7.3V44.5v-2.2-0.6-0.6c0-2.2-1.8-3.9-3.9-3.9H64.5c-2.2 0-3.9 1.8-3.9 3.9v0.6 0.6 26.8 0.1 0.6c0 2.2 1.8 3.9 3.9 3.9H77.9zM71.2 72c-1 0-1.7-0.8-1.7-1.7s0.8-1.7 1.7-1.7c1 0 1.7 0.8 1.7 1.7S72.2 72 71.2 72zM64.6 44.1h13.3v22.8H64.6V44.1z" fill="#000000" data-fill-palette-color="accent"></path></g></svg></g></svg></g></svg></g><defs></defs></svg><rect width="395.52" height="41.90635665311862" fill="none" stroke="none" visibility="hidden"></rect></g></svg></g></svg>